<?xml version="1.0" standalone="no"?>
<!DOCTYPE svg PUBLIC "-//W3C//DTD SVG 20010904//EN"
 "http://www.w3.org/TR/2001/REC-SVG-20010904/DTD/svg10.dtd">
<svg version="1.0" xmlns="http://www.w3.org/2000/svg"
 width="314.000000pt" height="420.000000pt" viewBox="0 0 314.000000 420.000000"
 preserveAspectRatio="xMidYMid meet">
<metadata>
Created by potrace 1.15, written by Peter Selinger 2001-2017
</metadata>
<g transform="translate(0.000000,420.000000) scale(0.100000,-0.100000)"
fill="#000" stroke="none">
<path d="M2214 4120 c-52 -116 -149 -181 -303 -204 -58 -9 -105 -16 -107 -16
-1 0 -5 12 -9 28 -3 15 -22 55 -41 89 -25 45 -46 68 -79 88 -25 14 -49 24 -54
21 -5 -4 -23 -31 -41 -62 -17 -31 -49 -76 -72 -100 l-41 -44 29 0 c42 0 52
-10 75 -71 36 -93 122 -192 192 -218 19 -8 27 -7 31 5 3 8 15 14 27 14 19 0
21 -4 15 -37 -16 -94 -15 -92 -59 -103 -23 -6 -55 -15 -71 -20 -16 -6 -39 -10
-52 -10 -22 0 -23 1 -8 35 8 19 11 35 6 35 -4 0 -64 -33 -133 -74 -70 -41
-137 -77 -150 -81 -43 -14 -319 -215 -319 -233 0 -4 -25 -35 -56 -70 -59 -66
-174 -148 -309 -222 -129 -70 -376 -222 -404 -248 l-26 -24 30 18 c17 10 50
30 75 44 25 15 92 56 150 90 58 35 134 79 170 98 l65 35 -60 -63 c-102 -106
-311 -259 -449 -330 -37 -20 -68 -40 -69 -45 0 -10 -78 -64 -130 -92 -16 -8
-27 -17 -24 -20 3 -2 14 0 25 6 14 8 36 8 73 1 59 -11 78 -28 52 -47 -14 -11
-14 -13 -2 -13 8 0 30 13 49 29 l34 28 43 -46 c23 -25 47 -63 53 -83 10 -34
92 -162 271 -423 110 -158 104 -140 73 -245 -23 -78 -25 -94 -14 -115 7 -13
10 -33 7 -44 -5 -20 -3 -19 39 5 46 27 73 26 107 -4 16 -14 17 -13 17 19 1 19
7 47 14 64 l12 29 33 -69 c68 -144 102 -208 113 -213 4 -2 14 -26 24 -54 20
-61 15 -184 -9 -238 -15 -34 -15 -29 -16 124 -1 88 -3 157 -6 155 -2 -3 -6
-86 -9 -185 -5 -200 -21 -308 -65 -434 -16 -47 -39 -122 -51 -168 -23 -94 -52
-164 -104 -252 -42 -71 -44 -81 -13 -53 12 11 39 30 61 42 21 12 64 44 96 71
62 55 81 63 56 25 -24 -37 -19 -41 12 -10 15 14 57 50 94 79 36 29 89 84 118
122 43 58 45 62 11 24 -50 -56 -54 -43 -5 19 32 41 30 40 -15 -9 -81 -87 -59
-44 30 60 98 114 141 175 74 105 -45 -47 -46 -48 -19 -10 l27 40 -26 -24 c-30
-27 -36 -19 -10 13 13 15 10 14 -10 -3 -25 -23 -38 -49 -18 -36 27 16 1 -48
-38 -94 -52 -62 -69 -61 -19 1 38 46 52 68 45 68 -3 0 -24 -25 -47 -56 -51
-67 -67 -65 -18 3 20 26 41 59 47 73 l12 25 -23 -26 c-13 -14 -35 -46 -50 -70
-15 -24 -35 -55 -45 -69 l-17 -25 22 19 c30 26 28 12 -5 -32 -23 -31 -24 -34
-5 -18 12 11 22 15 22 10 0 -12 -112 -124 -124 -124 -11 0 32 69 66 105 26 29
38 52 20 41 -10 -6 -10 40 1 50 11 12 8 26 -5 18 -7 -4 -8 -3 -4 5 4 6 11 9
15 7 3 -3 7 4 7 14 0 10 -4 16 -8 14 -13 -8 -10 0 19 52 37 68 16 45 -55 -62
-60 -91 -120 -159 -130 -150 -2 3 14 36 36 73 22 37 50 97 62 133 11 36 24 77
29 93 5 15 6 27 1 27 -10 0 3 69 19 99 7 13 9 21 4 18 -4 -3 -7 52 -5 121 4
145 9 159 84 253 28 35 39 53 24 39 -15 -14 -44 -46 -63 -72 -38 -52 -53 -60
-48 -25 12 84 47 145 167 290 46 55 73 97 64 97 -2 0 -50 -62 -107 -137 -57
-76 -107 -140 -110 -143 -8 -7 -23 -62 -20 -74 1 -5 -5 -3 -14 4 -12 10 -15
28 -13 72 3 58 20 81 26 33 2 -14 7 -25 12 -25 8 0 5 42 -5 77 -2 6 14 35 35
63 42 56 200 216 200 202 0 -4 -6 -14 -12 -22 -7 -8 -3 -6 10 4 24 21 30 13
10 -14 -7 -9 2 -1 20 19 31 33 43 59 21 45 -8 -4 -8 0 0 15 14 25 22 28 15 4
-4 -14 -1 -13 14 4 10 12 57 45 103 75 108 68 118 75 153 94 l28 16 -18 -32
c-23 -38 -44 -58 -44 -40 0 6 -12 -3 -26 -20 -15 -17 -29 -28 -32 -25 -3 2 3
15 14 27 14 16 14 19 2 10 -9 -7 -35 -38 -59 -68 -23 -30 -44 -52 -47 -49 -3
2 1 11 8 20 7 8 10 15 7 15 -2 0 -17 -17 -33 -37 -21 -29 -22 -33 -6 -19 38
33 24 8 -43 -81 -58 -75 -112 -163 -102 -163 2 0 21 27 42 61 35 57 60 77 35
27 -16 -31 -2 -14 44 50 57 78 55 56 -2 -29 -64 -96 -68 -104 -54 -95 7 4 24
28 39 54 39 68 74 113 84 107 6 -4 109 117 173 205 10 13 9 13 -6 1 -10 -7
-18 -10 -18 -7 0 9 77 113 90 121 19 12 9 -10 -20 -44 -20 -24 -26 -37 -18
-42 8 -5 -3 -25 -31 -61 l-43 -53 44 48 c39 43 46 47 57 33 11 -13 5 -25 -45
-83 -61 -72 -95 -117 -55 -73 13 14 44 49 69 77 l46 52 17 -26 18 -27 -64 -67
c-35 -38 -69 -78 -76 -91 -7 -15 0 -10 19 12 39 43 41 32 5 -18 -15 -20 -2
-10 29 23 55 59 71 90 23 45 -47 -44 -25 -5 24 44 50 49 73 47 43 -4 l-14 -25
21 24 c23 26 21 29 44 -64 15 -59 97 -264 151 -377 15 -31 31 -81 36 -111 6
-38 24 -78 61 -136 40 -63 52 -91 51 -119 -1 -19 -5 -39 -9 -43 -16 -15 -110
-37 -123 -29 -19 12 -98 -20 -194 -78 -45 -27 -112 -61 -151 -76 -38 -15 -98
-40 -133 -56 -72 -35 -92 -38 -69 -12 29 32 18 35 -16 5 -41 -36 -137 -99
-147 -96 -4 1 -18 -10 -31 -25 l-24 -27 29 25 c25 22 28 22 22 6 -6 -19 -6
-19 12 -3 10 9 24 17 31 17 7 0 -11 -22 -40 -48 -51 -47 -58 -72 -22 -72 8 0
54 21 101 47 48 25 114 61 147 79 127 68 303 129 515 180 114 27 225 62 218
70 -2 2 -33 -5 -69 -16 l-64 -19 26 22 c14 13 61 35 105 51 43 15 111 41 149
57 84 35 87 35 76 6 -4 -12 -31 -35 -58 -52 -92 -55 -273 -179 -273 -187 0
-11 31 6 92 49 60 42 89 45 58 6 -26 -33 -14 -48 32 -39 18 3 108 47 201 96
120 65 173 89 190 85 31 -8 91 19 140 64 23 21 63 48 89 60 36 17 50 31 62 62
34 84 15 90 -61 18 -52 -49 -79 -58 -77 -25 1 10 -6 16 -20 16 -11 1 -39 8
-61 16 -22 9 -69 17 -105 18 -100 5 -220 73 -266 151 -51 88 -38 265 31 397
19 37 35 78 35 90 -1 21 -2 20 -15 -7 -11 -25 -14 -27 -14 -9 -2 35 58 128
192 297 128 163 255 369 282 459 7 24 20 116 30 205 l19 162 -29 56 c-18 36
-29 74 -30 108 -3 64 -13 90 -70 178 -25 38 -45 73 -45 76 0 4 9 17 21 29 12
12 18 27 15 33 -4 6 -55 55 -114 109 -94 86 -117 102 -175 121 -37 13 -85 37
-107 56 -48 40 -78 45 -288 50 l-157 3 3 24 c4 23 3 23 -12 3 -15 -20 -15 -20
-16 3 0 31 37 63 96 85 27 10 79 40 116 67 57 42 73 61 104 122 20 40 56 101
79 135 l44 62 -69 70 -69 70 -27 -59z m55 -37 c-12 -17 -12 -17 5 -1 14 12 22
14 31 5 10 -9 5 -22 -23 -57 l-36 -45 43 40 c24 22 39 31 33 20 -6 -11 -22
-31 -37 -45 -15 -14 -38 -47 -52 -75 -68 -133 -170 -232 -281 -271 -52 -18
-53 -18 -89 1 -19 11 -69 56 -109 101 -41 44 -86 87 -99 94 -14 8 -37 29 -51
48 -26 34 -26 34 -8 73 9 22 27 53 40 70 l22 31 15 -24 c8 -12 20 -41 27 -63
17 -54 89 -160 143 -214 l45 -43 49 16 c74 25 104 47 133 100 14 27 36 53 48
57 31 12 27 -1 -14 -49 -19 -23 -30 -40 -22 -37 7 3 29 27 48 53 19 26 65 82
102 125 77 88 88 110 26 52 -24 -22 -33 -28 -20 -14 26 30 29 47 5 28 -11 -9
-9 -2 6 19 13 18 26 31 29 28 2 -3 -1 -14 -9 -23z m-143 -617 c11 -8 29 -33
39 -55 22 -50 41 -55 21 -6 -15 34 -14 35 10 41 33 9 38 1 25 -37 -16 -46 -5
-49 13 -4 l16 37 27 -17 c16 -10 37 -26 48 -35 11 -10 45 -34 75 -53 30 -19
62 -43 72 -53 33 -38 129 -178 150 -218 11 -22 30 -54 43 -71 12 -16 32 -49
44 -73 l22 -43 -35 -40 c-46 -50 -47 -63 -2 -20 l34 33 17 -32 c21 -41 29 -33
11 11 -34 84 -26 119 12 57 40 -65 38 -82 -11 -135 -24 -26 -51 -61 -59 -78
-16 -32 -33 -119 -19 -96 27 43 22 -96 -6 -154 l-14 -30 20 25 c19 23 26 42
22 63 -1 5 3 6 9 2 14 -8 13 -61 -2 -88 -6 -12 -26 -40 -43 -62 -32 -40 -65
-97 -65 -112 0 -4 13 15 29 42 16 28 36 57 45 64 14 12 16 10 16 -8 0 -34 -47
-120 -105 -191 -29 -36 -67 -92 -85 -125 -18 -33 -40 -69 -50 -80 -9 -11 -27
-38 -40 -60 -13 -22 -53 -78 -88 -125 -35 -47 -48 -68 -29 -46 28 32 35 35 40
21 9 -21 -46 -103 -76 -115 -30 -11 -33 -5 -12 27 17 28 17 28 -16 -3 -41 -39
-90 -52 -109 -29 -16 19 -16 76 -1 131 15 57 126 194 199 249 34 24 74 64 89
87 15 24 46 66 68 93 60 74 73 96 27 45 -58 -64 -52 -37 9 35 98 119 133 306
89 480 -11 43 -20 90 -20 105 0 30 -94 228 -141 296 -17 25 -34 42 -40 39 -5
-4 -9 0 -9 7 0 16 26 55 32 48 111 -143 154 -198 166 -210 25 -25 -28 49 -100
141 -38 47 -68 91 -68 97 0 23 -52 72 -76 72 -60 0 -113 -58 -88 -98 5 -8 35
-28 66 -45 58 -31 63 -39 71 -127 2 -14 17 -61 34 -105 17 -44 34 -100 37
-125 4 -25 12 -67 17 -95 9 -42 7 -64 -14 -145 -34 -131 -61 -197 -109 -271
-22 -35 -49 -82 -58 -104 -10 -22 -36 -60 -59 -84 -22 -24 -54 -67 -70 -95
-16 -28 -39 -60 -51 -71 -14 -12 -20 -14 -15 -5 5 10 5 12 -2 5 -6 -5 -44 -80
-84 -165 -79 -169 -107 -211 -122 -185 -12 22 8 110 35 154 12 20 28 47 36 61
l14 25 -19 -25 c-46 -62 -62 -71 -27 -15 20 33 29 54 20 46 -23 -19 -20 2 4
24 11 10 20 23 20 29 0 6 -14 -5 -30 -24 -16 -19 -30 -30 -30 -25 0 6 6 17 13
25 6 8 2 6 -10 -4 -24 -20 -32 -10 -10 14 10 12 9 12 -6 0 -10 -7 -23 -23 -29
-34 -10 -19 -10 -20 5 -7 10 8 17 9 17 3 0 -6 -4 -14 -10 -17 -5 -3 -15 -16
-22 -28 -10 -20 -10 -21 5 -8 23 19 21 5 -5 -32 -20 -27 -22 -28 -29 -11 -3
10 0 31 8 47 7 15 11 27 8 27 -3 0 5 17 18 38 13 20 27 46 31 57 5 13 10 15
13 7 3 -8 11 -5 24 10 10 13 18 18 19 11 0 -6 -4 -15 -10 -18 -5 -3 -10 -11
-10 -18 0 -6 11 4 25 23 29 39 32 48 10 30 -20 -16 -19 -6 1 28 16 26 15 25
-9 -3 -30 -34 -35 -28 -11 13 l16 27 -21 -25 c-12 -14 -40 -55 -62 -92 -39
-67 -56 -85 -45 -50 3 9 6 35 7 57 3 50 53 139 120 214 28 31 57 69 66 85 8
16 29 43 47 61 18 18 44 55 58 81 57 113 70 136 74 131 3 -3 -2 -19 -11 -36
-26 -52 -8 -34 25 24 33 57 35 65 46 173 4 38 12 66 20 69 11 4 10 8 -2 20
-12 12 -13 30 -8 87 5 54 2 87 -10 131 -20 68 -8 95 17 38 40 -91 50 -266 21
-364 -19 -65 -146 -309 -184 -353 -49 -58 -127 -184 -95 -154 16 15 21 15 47
2 27 -14 28 -15 13 -44 -27 -53 -15 -46 19 12 46 75 108 158 119 158 5 0 3 -8
-4 -17 -13 -16 -12 -17 4 -4 23 18 22 6 -4 -32 l-21 -32 30 33 c28 32 29 35
14 53 -9 10 -21 19 -27 19 -6 0 -20 7 -33 15 l-22 16 48 90 c97 185 109 211
121 265 20 88 -3 293 -41 368 -11 23 -44 75 -73 116 -29 41 -60 92 -70 112
-15 34 -19 36 -39 27 -11 -7 -31 -21 -44 -33 -23 -20 -24 -20 -37 -3 -16 22
-10 47 19 78 l23 24 -69 33 c-57 27 -68 35 -58 47 7 8 23 12 43 9 24 -4 41 1
66 20 41 30 40 30 67 12z m-417 -152 c-6 -8 -14 -12 -17 -9 -3 2 1 11 8 20 7
8 10 15 7 15 -4 0 -146 -174 -171 -210 -6 -8 -1 -7 12 4 23 20 31 10 10 -14
-7 -8 -3 -6 10 4 31 27 28 14 -14 -46 -24 -36 -26 -42 -7 -19 15 19 36 44 45
55 10 12 17 17 17 11 1 -5 -24 -41 -54 -80 -44 -57 -95 -136 -113 -178 -2 -4
2 -6 9 -5 8 2 15 -7 17 -19 5 -33 -9 -28 -36 11 -21 31 -22 38 -12 77 15 56
53 131 96 192 35 48 41 63 24 52 -5 -3 -10 -2 -10 2 0 11 89 111 90 101 0 -5
-16 -26 -36 -48 -20 -22 -34 -43 -32 -46 3 -3 38 36 78 86 60 75 75 89 82 75
6 -10 5 -21 -3 -31z m-245 18 c3 -5 -9 -31 -27 -58 -18 -27 -52 -92 -77 -144
-24 -52 -57 -113 -73 -135 -29 -39 -28 -39 12 5 48 54 54 45 9 -14 -20 -25
-24 -34 -10 -22 21 18 31 11 15 -10 -5 -6 11 10 35 35 l43 46 -5 -35 c-3 -19
-11 -54 -20 -77 -12 -35 -13 -48 -1 -87 8 -27 10 -46 4 -48 -5 -2 4 -19 21
-38 16 -19 28 -28 25 -19 -8 21 30 55 47 42 7 -5 33 -16 57 -23 43 -14 44 -14
67 14 13 15 24 23 24 19 2 -26 30 66 30 96 0 37 -51 131 -71 131 -5 0 7 -21
26 -46 50 -65 46 -88 -7 -39 -59 55 -59 56 -40 88 30 50 88 122 94 117 3 -3
14 2 24 10 27 22 75 46 105 53 22 6 36 -3 91 -56 96 -93 113 -120 173 -283 50
-138 70 -178 45 -94 -6 19 -20 69 -31 110 -24 89 -51 138 -115 209 -43 48 -46
54 -31 68 13 14 20 14 46 3 59 -24 124 -117 167 -241 21 -60 24 -79 16 -102
-7 -19 -7 -58 0 -125 10 -91 9 -101 -11 -146 -26 -59 -26 -59 -2 -44 11 7 18
15 16 18 -2 4 2 7 10 7 10 0 4 -20 -20 -67 -18 -37 -52 -111 -74 -165 -26 -62
-56 -114 -80 -141 -22 -23 -65 -80 -95 -126 -31 -45 -73 -105 -95 -133 -38
-48 -51 -72 -32 -61 12 8 21 -18 12 -32 -5 -8 -15 -2 -29 18 -24 31 -28 45
-12 35 5 -3 7 0 4 8 -3 8 17 43 44 78 27 35 65 96 85 134 21 39 60 96 87 128
28 32 50 64 50 70 0 6 -13 -5 -30 -24 -16 -20 -40 -39 -52 -42 -17 -4 -10 6
26 38 27 24 53 42 58 39 12 -8 38 59 38 98 0 18 -11 53 -25 77 -29 50 -32 87
-9 112 15 17 15 20 -5 45 -12 15 -21 22 -21 17 0 -6 7 -16 15 -23 14 -11 12
-17 -14 -42 l-30 -30 -33 38 c-53 59 -69 94 -45 94 7 0 34 19 61 43 41 36 49
49 53 87 5 43 3 47 -40 87 -34 32 -53 42 -73 41 -15 -2 -29 2 -31 8 -5 15 -77
-54 -97 -93 -31 -63 -20 -87 89 -183 23 -20 105 -123 105 -131 0 -4 -14 -12
-30 -18 -17 -5 -44 -20 -60 -31 -30 -21 -38 -18 -21 9 6 9 -9 37 -46 90 -66
92 -86 128 -77 142 3 6 -4 5 -17 -2 -18 -10 -20 -14 -9 -16 9 -2 25 -23 38
-46 12 -23 40 -66 62 -95 38 -50 40 -55 30 -90 -6 -20 -17 -46 -25 -56 -8 -11
-15 -28 -15 -38 0 -10 -5 -18 -11 -18 -17 0 -104 67 -134 102 -24 28 -25 32
-10 40 17 10 16 11 100 -57 61 -49 33 -9 -35 50 -25 21 -72 64 -104 94 -49 46
-55 50 -35 21 l24 -35 -33 24 c-64 45 -211 193 -269 269 -32 42 -63 83 -70 90
-6 6 -15 21 -18 32 -3 11 -11 20 -16 20 -6 0 -7 5 -4 10 3 6 2 10 -3 10 -12 0
-12 49 -1 56 5 3 9 10 9 16 0 6 -7 5 -17 -3 -15 -11 -16 -11 -5 1 18 21 15 34
-5 19 -16 -13 -17 -12 -4 4 8 9 16 15 19 12 7 -6 32 15 32 27 0 5 -5 6 -12 2
-7 -4 -8 -3 -4 4 4 6 13 9 22 5 13 -5 13 -8 1 -22 -30 -35 -28 -44 3 -16 l34
30 -30 -40 c-43 -57 -52 -74 -26 -51 24 21 30 12 10 -14 -7 -8 6 5 29 30 23
25 42 50 42 55 0 6 -13 -6 -29 -25 -37 -44 -40 -31 -3 15 16 20 30 30 34 24 4
-6 22 13 42 43 31 46 97 110 97 93 0 -11 -100 -163 -115 -175 -20 -17 -19 -1
2 22 9 10 14 20 12 23 -3 2 -29 -28 -58 -68 -44 -61 -46 -65 -12 -27 39 43 59
48 24 6 -15 -18 -14 -18 8 2 14 12 28 20 31 17 3 -3 11 3 19 12 13 16 12 17
-3 4 -27 -21 -21 -6 17 45 19 25 47 67 62 92 28 49 71 102 84 102 4 0 10 -4
13 -8z m1113 -86 c32 -30 80 -81 106 -114 l47 -60 -28 -17 c-15 -10 -24 -14
-20 -10 4 4 -6 19 -24 31 -17 13 -56 56 -85 95 -41 54 -52 76 -47 93 6 18 5
19 -8 9 -16 -14 -28 -8 -28 14 0 26 30 12 87 -41z m-441 -92 c52 -42 87 -100
121 -205 l27 -82 -24 -19 c-28 -22 -44 -12 -56 37 l-7 30 23 -20 c19 -17 18
-12 -7 25 -17 25 -46 71 -64 104 -36 62 -99 118 -155 136 -19 6 -34 14 -34 18
0 3 12 18 26 33 l26 28 42 -26 c22 -14 60 -41 82 -59z m-1094 -161 c-31 -46
-35 -60 -8 -30 14 15 28 27 33 27 4 0 2 -5 -5 -12 -15 -15 -16 -32 -2 -23 6 3
10 1 10 -6 0 -8 4 -8 13 -1 8 7 16 6 24 -3 10 -11 3 -25 -39 -72 l-52 -58 47
45 c48 45 64 46 25 1 -18 -21 -16 -20 10 3 18 17 28 33 22 36 -6 4 -2 14 11
26 22 19 22 19 14 -6 -5 -14 -9 -35 -11 -48 -1 -13 -19 -44 -39 -70 l-36 -47
42 47 42 48 78 -77 c87 -85 134 -146 124 -162 -3 -6 0 -8 8 -5 28 10 27 -13
-1 -52 -16 -22 -37 -52 -47 -69 l-18 -30 26 30 c15 17 26 27 27 24 0 -14 -23
-69 -29 -69 -8 0 -46 25 -134 89 -46 34 -46 35 -29 55 17 21 17 21 -5 3 -18
-16 -24 -16 -42 -5 -28 17 -34 37 -19 57 12 14 11 14 -4 3 -18 -14 -43 -7 -32
9 3 5 9 7 13 5 3 -3 7 4 7 14 0 14 -9 10 -37 -21 -40 -43 -55 -48 -76 -21 -13
16 -14 16 -5 -2 7 -15 1 -25 -32 -55 -53 -48 -196 -151 -209 -151 -6 0 -8 -3
-4 -6 3 -4 27 6 53 21 l46 27 60 -17 c33 -9 108 -25 167 -36 58 -10 122 -23
141 -29 19 -6 62 -15 95 -20 33 -5 73 -13 89 -16 26 -6 28 -5 21 17 -4 13 -18
35 -30 49 -21 23 -22 27 -10 50 8 14 14 33 15 44 0 10 9 34 21 53 l21 34 37
-28 c20 -15 63 -50 96 -79 33 -28 105 -81 160 -117 55 -36 118 -84 140 -106
21 -23 43 -41 49 -41 5 0 -2 13 -17 28 -34 35 -36 56 -4 47 12 -4 29 -14 37
-21 13 -13 13 -16 0 -24 -8 -5 -11 -10 -7 -10 4 0 20 8 35 17 20 13 15 4 -18
-31 -86 -93 -116 -121 -146 -136 -16 -8 -58 -42 -94 -75 -36 -34 -101 -81
-145 -105 -44 -23 -94 -54 -111 -66 -39 -30 -172 -92 -295 -138 -110 -41 -186
-75 -247 -111 -23 -14 -44 -25 -46 -25 -3 0 -7 19 -11 43 -4 23 -27 81 -50
128 -43 85 -54 105 -154 268 -38 63 -48 87 -39 93 10 6 8 8 -4 8 -17 0 -38 28
-38 49 0 5 8 12 18 14 9 2 7 3 -5 2 -29 -3 -51 20 -28 29 16 6 158 -2 185 -10
25 -8 -9 -24 -55 -25 l-40 -1 31 -9 c34 -10 58 -42 134 -184 50 -94 151 -244
182 -271 18 -16 17 -13 -5 21 -33 49 -33 55 -3 88 l24 26 -45 85 c-24 47 -50
86 -58 86 -32 0 -37 38 -14 100 33 91 26 89 209 57 42 -7 87 -10 100 -7 l25 6
-24 6 c-38 11 -20 33 25 30 42 -4 84 -21 52 -22 -10 0 -18 -4 -18 -10 0 -6 31
-10 72 -10 39 0 101 -7 137 -16 49 -13 95 -15 193 -12 107 4 126 3 116 -9 -6
-7 -8 -16 -5 -19 6 -7 26 27 24 41 -1 5 12 13 28 16 l30 7 -27 1 c-43 2 -34
27 15 39 l42 11 -53 -4 c-32 -2 -50 0 -47 5 9 14 4 13 -48 -10 -41 -18 -54
-19 -144 -10 -204 21 -273 32 -444 70 -98 22 -217 44 -265 50 -49 6 -111 15
-137 19 -27 4 -60 6 -74 3 l-26 -5 32 47 c41 59 32 60 -10 1 l-33 -46 -71 5
c-87 7 -95 8 -95 15 1 16 72 101 80 96 5 -3 14 5 21 17 16 31 81 98 89 93 4
-3 14 3 21 13 13 15 12 16 -3 3 -12 -9 -18 -10 -18 -2 0 6 5 12 10 12 6 1 14
2 19 3 4 0 30 24 56 51 l47 50 -39 -50 c-21 -27 -54 -70 -72 -95 l-33 -45 45
50 c63 68 59 50 -8 -36 -30 -39 -55 -74 -55 -78 0 -3 7 3 16 14 68 91 106 136
111 132 2 -3 -17 -34 -44 -69 -62 -79 -96 -128 -90 -128 3 0 22 23 42 50 21
28 40 49 43 46 2 -3 -1 -14 -9 -23 -13 -17 -13 -17 5 -3 18 14 19 13 13 -5 -7
-19 -7 -19 7 -1 8 10 29 34 47 53 68 75 167 215 140 199 -13 -8 -10 21 3 43 6
10 10 10 16 1 5 -8 15 -1 31 22 12 18 49 63 81 99 73 84 76 102 3 23 l-54 -59
29 58 c28 58 76 127 86 127 3 0 -3 -12 -14 -27z m1799 -341 c22 -118 -2 -213
-73 -289 -28 -29 -54 -53 -59 -53 -16 0 -15 36 3 70 10 19 18 49 18 67 0 45
16 81 50 113 17 15 30 34 30 40 0 7 -9 1 -21 -14 -19 -25 -49 -36 -49 -18 0 4
11 24 25 43 15 20 24 42 21 53 -3 10 2 33 11 49 19 38 27 26 44 -61z m-265
-48 c-8 -74 -41 -174 -71 -214 -14 -18 -21 -36 -16 -40 5 -3 -4 -21 -20 -40
-15 -19 -29 -30 -29 -24 0 6 9 19 20 29 11 10 20 23 20 29 0 6 -14 -5 -30 -24
-16 -19 -30 -30 -30 -24 0 6 7 17 15 24 8 7 15 18 15 24 -1 6 -14 -5 -30 -24
-31 -36 -41 -61 -15 -40 8 7 15 8 15 2 0 -5 -7 -15 -15 -22 -12 -10 -15 -10
-15 0 0 10 -3 10 -15 0 -8 -7 -15 -17 -15 -22 0 -6 7 -5 15 2 8 7 15 8 15 2 0
-5 -7 -15 -15 -22 -8 -7 -15 -18 -15 -24 0 -6 11 3 25 19 34 42 31 22 -5 -31
-17 -24 -29 -44 -26 -44 3 0 19 21 36 46 53 76 44 42 -14 -52 -76 -125 -128
-189 -154 -190 -20 -1 -21 0 -5 30 8 17 30 49 47 71 36 45 96 133 96 141 0 3
-4 2 -10 -1 -5 -3 -10 -2 -10 4 0 5 5 13 10 16 6 3 10 11 10 16 0 6 -4 7 -10
4 -23 -14 -6 15 46 80 31 39 74 106 96 150 34 67 42 94 49 168 5 48 12 93 16
100 12 19 25 -63 19 -119z m-2121 -373 c6 -10 23 -41 39 -67 241 -405 262
-445 246 -471 -10 -15 -11 -15 -6 -1 3 11 1 15 -8 12 -8 -3 -18 8 -26 27 -7
17 -36 68 -63 113 -70 115 -172 295 -201 355 -21 45 -22 51 -7 51 9 0 21 -9
26 -19z m1946 -488 c-17 -36 -32 -87 -36 -124 -1 -9 -16 -39 -33 -66 -18 -27
-32 -54 -32 -60 0 -5 -11 -37 -25 -71 -27 -66 -31 -124 -14 -185 16 -59 6 -64
-24 -10 -24 44 -26 45 -21 16 4 -21 2 -33 -4 -33 -13 0 -52 -40 -52 -53 0 -5
14 6 31 24 37 40 44 34 89 -71 33 -80 95 -170 135 -196 31 -21 31 -28 0 -42
-36 -17 -70 -15 -86 4 -7 8 -20 13 -30 11 -30 -8 -74 52 -196 265 -43 76 -43
78 -27 103 9 14 25 30 35 36 10 5 30 25 44 44 31 40 28 60 -16 109 -35 40 -30
47 58 71 65 18 88 35 80 57 -2 7 12 36 31 63 55 78 106 145 109 145 2 0 -5
-17 -16 -37z m-375 -57 c6 -16 -13 -63 -51 -123 -38 -62 -24 -53 19 12 20 30
40 55 45 55 5 0 16 -12 26 -26 16 -25 16 -29 1 -62 -9 -19 -14 -37 -11 -40 3
-3 5 1 5 8 0 11 4 11 16 -2 21 -21 11 -48 -18 -48 -16 0 -31 -13 -51 -45 -28
-44 -47 -51 -47 -17 0 9 7 26 15 36 24 32 17 40 -8 10 l-23 -26 -2 75 c-1 65
3 86 29 142 29 64 44 79 55 51z m-704 -15 c-3 -8 -1 -12 4 -8 12 7 12 -38 0
-50 -5 -5 -6 0 -2 11 5 16 4 17 -9 6 -16 -13 -21 -1 -7 16 4 5 -31 -29 -78
-76 -47 -47 -110 -115 -139 -152 -29 -38 -55 -68 -57 -68 -8 0 -44 80 -44 97
1 23 167 176 222 204 l43 21 -61 -63 c-33 -35 -87 -95 -119 -134 -32 -38 3 -6
78 72 88 90 144 141 156 140 12 -1 17 -6 13 -16z m906 -775 c23 -15 42 -30 42
-35 0 -4 12 -13 27 -20 27 -12 27 -13 8 -27 -11 -8 -31 -18 -45 -21 -13 -3
-60 -32 -104 -65 -95 -70 -110 -74 -85 -25 7 12 -8 1 -33 -25 -27 -29 -53 -48
-66 -48 -29 0 -28 10 6 37 26 22 25 22 -33 -3 -33 -14 -64 -29 -70 -34 -5 -4
-21 -11 -35 -14 l-25 -7 25 22 c32 27 190 107 221 111 27 4 99 45 99 57 0 4
-11 18 -25 31 -26 24 -31 45 -16 68 5 9 20 -3 51 -43 23 -30 45 -53 48 -51 2
3 -16 29 -42 59 -43 50 -56 84 -39 101 4 3 16 -4 27 -18 12 -13 40 -36 64 -50z
m602 -14 c0 -16 -461 -281 -528 -303 -77 -25 -38 21 113 136 83 62 116 80 170
89 22 4 60 19 85 34 25 14 56 32 70 39 27 14 90 18 90 5z"/>
<path d="M1010 2135 c-7 -9 -21 -13 -31 -10 -20 7 -28 -18 -10 -30 5 -3 15
-21 21 -40 14 -43 121 -248 126 -242 2 2 -1 18 -7 36 -6 18 -9 35 -5 38 11 12
56 -20 77 -54 38 -61 31 -27 -10 56 -23 44 -41 93 -41 108 -1 16 -6 38 -13 49
-12 22 -84 104 -91 104 -2 0 -9 -7 -16 -15z"/>
</g>
</svg>
